HIERARCHY
ROOT Hips
{
	OFFSET 0.00000 0.00000 0.00000
	CHANNELS 6 Xposition Yposition Zposition Zrotation Yrotation Xrotation 
	JOINT LHipJoint
	{
		OFFSET 0 0 0
		CHANNELS 3 Zrotation Yrotation Xrotation
		JOINT LeftUpLeg
		{
			OFFSET 1.64549 -1.70879 0.84566
			CHANNELS 3 Zrotation Yrotation Xrotation
			JOINT LeftLeg
			{
				OFFSET 2.24963 -6.18082 0.00000
				CHANNELS 3 Zrotation Yrotation Xrotation
				JOINT LeftFoot
				{
					OFFSET 2.71775 -7.46697 0.00000
					CHANNELS 3 Zrotation Yrotation Xrotation
					JOINT LeftToeBase
					{
						OFFSET 0.18768 -0.51564 2.24737
						CHANNELS 3 Zrotation Yrotation Xrotation
						End Site
						{
							OFFSET 0.00000 -0.00000 1.15935
						}
					}
				}
			}
		}
	}
	JOINT RHipJoint
	{
		OFFSET 0 0 0
		CHANNELS 3 Zrotation Yrotation Xrotation
		JOINT RightUpLeg
		{
			OFFSET -1.58830 -1.70879 0.84566
			CHANNELS 3 Zrotation Yrotation Xrotation
			JOINT RightLeg
			{
				OFFSET -2.25006 -6.18201 0.00000
				CHANNELS 3 Zrotation Yrotation Xrotation
				JOINT RightFoot
				{
					OFFSET -2.72829 -7.49593 0.00000
					CHANNELS 3 Zrotation Yrotation Xrotation
					JOINT RightToeBase
					{
						OFFSET -0.21541 -0.59185 2.10643
						CHANNELS 3 Zrotation Yrotation Xrotation
						End Site
						{
							OFFSET -0.00000 -0.00000 1.09838
						}
					}
				}
			}
		}
	}
	JOINT LowerBack
	{
		OFFSET 0 0 0
		CHANNELS 3 Zrotation Yrotation Xrotation
		JOINT Spine
		{
			OFFSET 0.03142 2.10496 -0.11038
			CHANNELS 3 Zrotation Yrotation Xrotation
			JOINT Spine1
			{
				OFFSET -0.01863 2.10897 -0.06956
				CHANNELS 3 Zrotation Yrotation Xrotation
				JOINT Neck
				{
					OFFSET 0 0 0
					CHANNELS 3 Zrotation Yrotation Xrotation
					JOINT Neck1
					{
						OFFSET -0.02267 1.73238 0.00451
						CHANNELS 3 Zrotation Yrotation Xrotation
						JOINT Head
						{
							OFFSET -0.05808 1.54724 -0.61749
							CHANNELS 3 Zrotation Yrotation Xrotation
							End Site
							{
								OFFSET -0.01396 1.71468 -0.21082
							}
						}
					}
				}
				JOINT LeftShoulder
				{
					OFFSET 0 0 0
					CHANNELS 3 Zrotation Yrotation Xrotation
					JOINT LeftArm
					{
						OFFSET 3.44898 0.50298 0.21920
						CHANNELS 3 Zrotation Yrotation Xrotation
						JOINT LeftForeArm
						{
							OFFSET 5.41917 -0.00000 -0.00000
							CHANNELS 3 Zrotation Yrotation Xrotation
							JOINT LeftHand
							{
								OFFSET 2.44373 -0.00000 0.00000
								CHANNELS 3 Zrotation Yrotation Xrotation
								JOINT LeftFingerBase
								{
									OFFSET 0 0 0
									CHANNELS 3 Zrotation Yrotation Xrotation
									JOINT LeftHandIndex1
									{
										OFFSET 0.72750 -0.00000 0.00000
										CHANNELS 3 Zrotation Yrotation Xrotation
										End Site
										{
											OFFSET 0.58653 -0.00000 0.00000
										}
									}
								}
								JOINT LThumb
								{
									OFFSET 0 0 0
									CHANNELS 3 Zrotation Yrotation Xrotation
									End Site
									{
										OFFSET 0.59549 -0.00000 0.59549
									}
								}
							}
						}
					}
				}
				JOINT RightShoulder
				{
					OFFSET 0 0 0
					CHANNELS 3 Zrotation Yrotation Xrotation
					JOINT RightArm
					{
						OFFSET -3.23015 0.55830 0.31051
						CHANNELS 3 Zrotation Yrotation Xrotation
						JOINT RightForeArm
						{
							OFFSET -5.58976 -0.00010 0.00014
							CHANNELS 3 Zrotation Yrotation Xrotation
							JOINT RightHand
							{
								OFFSET -2.48060 -0.00000 0.00000
								CHANNELS 3 Zrotation Yrotation Xrotation
								JOINT RightFingerBase
								{
									OFFSET 0 0 0
									CHANNELS 3 Zrotation Yrotation Xrotation
									JOINT RightHandIndex1
									{
										OFFSET -0.81601 -0.00000 0.00000
										CHANNELS 3 Zrotation Yrotation Xrotation
										End Site
										{
											OFFSET -0.65789 -0.00000 0.00000
										}
									}
								}
								JOINT RThumb
								{
									OFFSET 0 0 0
									CHANNELS 3 Zrotation Yrotation Xrotation
									End Site
									{
										OFFSET -0.66793 -0.00000 0.66793
									}
								}
							}
						}
					}
				}
			}
		}
	}
}
MOTION
Frames: 6
Frame Time: .0083333
1.047500 16.507300 -34.619400 -1.369100 0.816800 12.002600 0.000000 0.000000 0.000000 -21.658100 -16.853400 -17.563200 2.530300 9.892800 28.630200 1.496500 12.588300 -30.663300 0.092300 -1.959200 -5.392900 0.000000 0.000000 0.000000 19.514800 11.205700 -32.720100 -9.427000 -17.074800 57.555300 0.561600 -16.288100 -16.328500 -0.061900 -1.605100 4.415600 -1.117100 1.022200 -3.718700 -1.337100 1.384600 -3.162300 -0.708400 0.699700 -1.153700 -2.157000 -3.274500 -14.451000 6.069700 -6.760000 38.587200 1.852600 -2.275400 16.677100 -0.000000 -0.000000 0.000000 -85.555100 5.056900 -3.866400 34.451700 -44.416600 -14.428300 -0.000000 0.000000 -0.093200 2.119100 20.545500 0.744000 -7.125000 0.000000 -0.000000 -25.520100 48.745500 -2.508100 -0.000000 -0.000000 0.000000 84.213200 -11.638100 21.479800 -17.923600 28.059200 -4.513200 0.000000 -0.000000 -17.865300 -5.346400 15.760400 -1.456100 7.125000 -0.000000 -0.000000 14.929800 -14.512400 11.102400
1.032900 16.511300 -34.552400 -1.422000 2.175900 11.984400 0.000000 0.000000 0.000000 -21.424500 -16.876100 -17.457600 2.561200 9.948400 28.809900 1.570000 11.558000 -30.310700 0.089600 -1.930700 -5.314200 0.000000 0.000000 0.000000 19.749200 10.599900 -33.810700 -9.103900 -16.874100 56.448800 0.363400 -16.070100 -18.756800 -0.137600 -2.391200 6.588000 -1.429700 0.334000 -3.858200 -0.841300 0.492200 -2.385400 -0.043200 0.256100 -0.288600 -2.222400 -3.116500 -15.937300 5.806500 -6.363800 38.198600 1.790800 -2.132700 16.802400 0.000000 0.000000 0.000000 -86.104200 3.242000 -4.557400 35.089400 -44.875800 -14.876400 -0.000000 0.000000 -0.263600 2.526000 20.322600 0.877800 -7.125000 0.000000 -0.000000 -25.042900 48.602500 -2.362400 0.000000 0.000000 0.000000 83.762700 -9.940800 21.811600 -17.690500 27.759100 -4.404200 0.000000 -0.000000 -16.775900 -5.750900 16.068200 -1.596700 7.125000 -0.000000 -0.000000 14.649500 -14.191900 10.982600
1.063000 16.505700 -34.422600 -1.732200 1.241400 11.554200 0.000000 0.000000 0.000000 -21.612600 -16.899400 -16.267400 2.576900 9.976400 28.900500 1.825700 11.586500 -31.928200 0.020800 -0.931200 -2.559600 0.000000 0.000000 0.000000 19.803500 11.448400 -33.853400 -8.724700 -16.627300 55.133000 0.329500 -16.176400 -19.370700 -0.116700 -2.202500 6.065700 -0.919400 0.781200 -3.797500 -0.881600 1.068600 -2.618100 -0.353400 0.540200 -0.556500 -2.297100 -3.214200 -14.286300 5.941800 -6.495700 37.670000 1.845000 -2.224800 16.130100 -0.000000 0.000000 0.000000 -85.912700 4.018700 -3.715400 36.117800 -45.594000 -15.606600 -0.000000 0.000000 -1.038200 3.527800 20.789500 1.253500 -7.125000 0.000000 -0.000000 -24.370000 49.170800 -2.649500 -0.000000 0.000000 0.000000 84.033600 -11.155800 21.639400 -17.813400 27.917500 -4.461500 0.000000 -0.000000 -15.762400 -6.044900 16.208600 -1.693100 7.125000 -0.000000 -0.000000 14.450300 -14.039100 10.871400
1.030200 16.505600 -34.417500 -1.794500 2.583700 12.854900 0.000000 0.000000 0.000000 -20.802300 -17.437900 -17.954100 2.589300 9.998500 28.972000 1.637600 11.245600 -30.503600 0.034700 -1.203100 -3.307800 0.000000 0.000000 0.000000 19.645400 11.697300 -36.557500 -8.352900 -16.372800 53.824200 0.323700 -16.627800 -20.205900 -0.160200 -2.578600 7.107500 -1.311800 0.179800 -3.408900 -0.465300 0.268200 -2.957600 0.264500 0.152100 -1.125900 -2.292700 -3.236900 -16.278300 5.639200 -6.441600 37.946800 1.702400 -2.195300 16.751200 0.000000 0.000000 0.000000 -86.107700 3.020700 -3.813000 36.770600 -46.035800 -16.074700 -0.000000 0.000000 -1.663500 4.400900 21.309100 1.602000 -7.125000 0.000000 -0.000000 -23.835000 49.773900 -2.954800 0.000000 0.000000 0.000000 83.807500 -10.327800 21.783700 -17.653100 27.710600 -4.386700 0.000000 -0.000000 -14.779400 -5.942600 16.391600 -1.682600 7.125000 -0.000000 -0.000000 14.509700 -13.867100 10.974000
1.064800 16.503700 -34.300200 -2.090200 1.312700 12.665900 0.000000 0.000000 0.000000 -21.026300 -16.858400 -17.130200 2.562200 9.950100 28.815400 1.791400 11.515900 -31.667300 0.031100 -1.137900 -3.128200 0.000000 0.000000 0.000000 19.520400 12.594900 -36.729300 -7.891600 -16.038900 52.171200 0.239600 -16.171600 -20.429200 -0.097500 -2.013200 5.542300 -0.922900 0.659000 -3.897000 -0.470400 0.907800 -2.587800 0.066100 0.462500 -0.476400 -2.043800 -3.250500 -16.283000 5.430700 -6.419700 37.392000 1.555900 -2.188600 16.434900 -0.000000 -0.000000 0.000000 -86.027600 2.337600 -3.559200 37.425200 -46.468200 -16.547600 -0.000000 0.000000 -1.953300 4.875900 21.633800 1.801400 -7.125000 0.000000 -0.000000 -23.564100 50.142900 -3.140600 -0.000000 -0.000000 0.000000 83.985200 -10.001600 21.427500 -17.544100 27.569400 -4.336100 0.000000 -0.000000 -13.821100 -5.987100 15.943400 -1.650200 7.125000 -0.000000 -0.000000 14.499900 -14.300000 10.828000
1.083300 16.507600 -34.183600 -2.171300 0.983900 12.334200 0.000000 0.000000 0.000000 -21.332000 -17.138600 -15.841100 2.510200 9.856400 28.512900 1.888800 12.078000 -32.672200 0.030100 -1.120100 -3.079200 0.000000 0.000000 0.000000 19.390700 12.866300 -36.757900 -7.394000 -15.654900 50.349100 0.226100 -16.012100 -20.329100 -0.016400 -0.825700 2.269300 -0.807300 0.811400 -3.258600 -0.455700 1.099600 -2.638800 0.012000 0.558500 -0.884800 -1.689500 -3.245400 -16.352900 5.153200 -6.398000 37.044900 1.366700 -2.172700 16.240500 -0.000000 -0.000000 0.000000 -85.918900 2.270400 -3.148200 38.253900 -47.000700 -17.151000 -0.000000 0.000000 -2.447600 5.286800 21.951100 1.981100 -7.125000 0.000000 -0.000000 -23.347900 50.497000 -3.320400 -0.000000 -0.000000 0.000000 84.180400 -10.178400 21.187400 -17.353700 27.321700 -4.248400 0.000000 -0.000000 -13.035600 -6.254600 15.835900 -1.713100 7.125000 -0.000000 -0.000000 14.328500 -14.389600 10.663000
